<svg width="34" height="34" viewBox="0 0 34 34" fill="none" xmlns="http://www.w3.org/2000/svg">
<g clip-path="url(#clip0_2_1363)">
<path d="M22.0424 10.4283C20.3136 11.5982 19.4204 13.7069 22.0424 15.4835C23.4831 19.0944 26.1627 18.1266 27.8051 16.4512C28.6974 15.1687 29.2747 13.6929 29.4901 12.1443C29.7054 10.5956 29.5526 9.01778 29.0441 7.53955C26.4653 9.46054 24.2034 8.9839 22.0424 10.4283Z" stroke="#001D85" stroke-width="0.6" stroke-linecap="round" stroke-linejoin="round"/>
<path d="M17.0288 5.34414C18.9017 7.53955 19.9102 10.4283 15.4297 12.3781C13.3983 16.9278 10.3008 15.2668 8.22627 12.8114C6.15169 10.356 5.40254 3.8709 7.20339 0.43335C10.5602 3.26428 14.6949 2.58543 17.0288 5.34414Z" stroke="#001D85" stroke-width="0.6" stroke-linecap="round" stroke-linejoin="round"/>
<path d="M25.644 12.5947C21.322 14.7613 19.161 20.5387 19.161 20.5387C17.6272 14.7824 14.4769 9.58881 10.0847 5.5752" stroke="#001D85" stroke-width="0.6" stroke-linecap="round" stroke-linejoin="round"/>
<path d="M6.1949 20.6542H0.43219V32.209H6.1949V20.6542Z" stroke="#001D85" stroke-width="0.6" stroke-linecap="round" stroke-linejoin="round"/>
<path d="M6.19495 30.0425C21.6534 35.2133 15.9483 35.2566 33.5678 26.4316C33.0805 25.7775 32.4052 25.2886 31.6326 25.0304C30.86 24.7722 30.0271 24.7572 29.2458 24.9873L22.8636 27.1105" stroke="#001D85" stroke-width="0.6" stroke-linecap="round" stroke-linejoin="round"/>
<path d="M6.19495 22.0985H10.517C12.9688 22.1868 15.2917 23.2219 17 24.9872H21.3221C21.7042 24.9872 22.0706 25.1394 22.3408 25.4103C22.611 25.6811 22.7627 26.0485 22.7627 26.4316C22.7627 26.8146 22.611 27.182 22.3408 27.4529C22.0706 27.7237 21.7042 27.8759 21.3221 27.8759H13.3983" stroke="#001D85" stroke-width="0.6" stroke-linecap="round" stroke-linejoin="round"/>
</g>
<defs>
<clipPath id="clip0_2_1363">
<rect width="34" height="34" fill="white"/>
</clipPath>
</defs>
</svg>
