<svg width="36" height="34" viewBox="0 0 36 34" fill="none" xmlns="http://www.w3.org/2000/svg">
<path d="M33.3201 19.9692L34.9889 17.0766L33.3201 16.1198C33.4968 15.3247 33.4968 14.5006 33.3201 13.7055L35 12.7376L33.3312 9.84492L31.718 10.8128C31.1129 10.3078 30.4337 9.89876 29.7042 9.60015V7.67542H26.3665V9.60015C25.5371 9.7663 24.7815 10.1908 24.2082 10.8128L22.4948 9.84492L20.8037 12.7376L22.4614 13.7055C22.2847 14.5006 22.2847 15.3247 22.4614 16.1198L20.7926 17.0766L22.4614 19.9692L24.197 19.0013C24.7704 19.6233 25.526 20.0479 26.3554 20.214V22.1387H29.6931V20.214C30.4226 19.9154 31.1017 19.5064 31.7069 19.0013L33.3201 19.9692Z" stroke="#001D85" stroke-width="0.6" stroke-linecap="round" stroke-linejoin="round"/>
<path d="M27.8907 17.1321C29.1196 17.1321 30.1158 16.1359 30.1158 14.907C30.1158 13.6781 29.1196 12.6819 27.8907 12.6819C26.6618 12.6819 25.6655 13.6781 25.6655 14.907C25.6655 16.1359 26.6618 17.1321 27.8907 17.1321Z" stroke="#001D85" stroke-width="0.6" stroke-linecap="round" stroke-linejoin="round"/>
<path d="M22.7506 31.0949L24.4195 28.2022L22.7506 27.2454C22.9274 26.4503 22.9274 25.6262 22.7506 24.8311L24.4306 23.8632L22.7617 20.9705L21.1485 21.9385C20.5434 21.4334 19.8642 21.0244 19.1348 20.7258V18.801H15.7971V20.7258C14.9676 20.8919 14.2121 21.3164 13.6387 21.9385L11.9365 20.9705L10.2343 23.8632L11.892 24.8311C11.7153 25.6262 11.7153 26.4503 11.892 27.2454L10.2231 28.2022L11.892 31.0949L13.6276 30.1269C14.2009 30.749 14.9565 31.1735 15.786 31.3396V33.2644H19.1237V31.3396C19.8531 31.041 20.5323 30.632 21.1374 30.1269L22.7506 31.0949Z" stroke="#001D85" stroke-width="0.6" stroke-linecap="round" stroke-linejoin="round"/>
<path d="M17.3213 28.2579C18.5502 28.2579 19.5464 27.2616 19.5464 26.0327C19.5464 24.8038 18.5502 23.8076 17.3213 23.8076C16.0924 23.8076 15.0962 24.8038 15.0962 26.0327C15.0962 27.2616 16.0924 28.2579 17.3213 28.2579Z" stroke="#001D85" stroke-width="0.6" stroke-linecap="round" stroke-linejoin="round"/>
<path d="M17.0543 9.90051C17.0548 9.39521 16.9988 8.89143 16.8874 8.39855L18.6453 7.38612L16.4201 3.53665L14.6957 4.54908C13.9816 3.83191 13.0974 3.3075 12.1256 3.02487V1H7.67538V3.02487C6.67954 3.30633 5.76701 3.8256 5.01636 4.53795L3.24738 3.52552L1.02225 7.37499L2.75785 8.39855C2.64566 8.89506 2.58967 9.40261 2.59097 9.91164C2.59154 10.42 2.64373 10.9269 2.74673 11.4247L1 12.426L3.22513 16.2755L5.01636 15.2631C5.76701 15.9754 6.67954 16.4947 7.67538 16.7762V18.801H12.1256V16.7762C13.0963 16.4967 13.9804 15.9762 14.6957 15.2631L16.4313 16.2755L18.6564 12.426L16.9097 11.4136C17.0089 10.9154 17.0574 10.4085 17.0543 9.90051V9.90051Z" stroke="#001D85" stroke-width="0.6" stroke-linecap="round" stroke-linejoin="round"/>
<path d="M11.6139 13.8936C9.04386 13.8936 6.97449 13.1816 6.97449 9.9774C6.97449 6.77322 9.04386 6.05005 11.6139 6.05005" stroke="#001D85" stroke-width="0.6" stroke-linecap="round" stroke-linejoin="round"/>
<path d="M5.89526 11.0435H9.82261" stroke="#001D85" stroke-width="0.6" stroke-linecap="round" stroke-linejoin="round"/>
<path d="M5.89526 9.62231H10.5347" stroke="#001D85" stroke-width="0.6" stroke-linecap="round" stroke-linejoin="round"/>
</svg>
