<svg width="36" height="36" viewBox="0 0 36 36" fill="none" xmlns="http://www.w3.org/2000/svg">
<path d="M3.80432 3.80371H20.6304V6.60805" stroke="#001D85" stroke-width="0.6" stroke-linecap="round" stroke-linejoin="round"/>
<path d="M23.4347 6.60868V1H3.80434C3.06058 1 2.34729 1.29546 1.82137 1.82137C1.29545 2.34729 1 3.06058 1 3.80434C1 4.5481 1.29545 5.26139 1.82137 5.78731C2.34729 6.31322 3.06058 6.60868 3.80434 6.60868H24.8369V33.2499H3.80434C3.06058 33.2499 2.34729 32.9545 1.82137 32.4285C1.29545 31.9026 1 31.1893 1 30.4456V3.80434" stroke="#001D85" stroke-width="0.6" stroke-linecap="round" stroke-linejoin="round"/>
<path d="M34.9886 26.5874L32.1842 35.0004L29.3799 26.5874V5.66701C29.3799 4.92325 29.6753 4.20996 30.2013 3.68404C30.7272 3.15813 31.4405 2.86267 32.1842 2.86267C32.928 2.86267 33.6413 3.15813 34.1672 3.68404C34.6931 4.20996 34.9886 4.92325 34.9886 5.66701V26.5874Z" stroke="#001D85" stroke-width="0.6" stroke-linecap="round" stroke-linejoin="round"/>
<path d="M34.9887 8.47009H29.366" stroke="#001D85" stroke-width="0.6" stroke-linecap="round" stroke-linejoin="round"/>
<path d="M34.9887 26.5188H29.366" stroke="#001D85" stroke-width="0.6" stroke-linecap="round" stroke-linejoin="round"/>
<path d="M19.2282 13.6207H6.60864V20.6316H19.2282V13.6207Z" stroke="#001D85" stroke-width="0.6" stroke-linecap="round" stroke-linejoin="round"/>
</svg>
