<svg width="34" height="36" viewBox="0 0 34 36" fill="none" xmlns="http://www.w3.org/2000/svg">
<path d="M16.9017 1V4.17561" stroke="#001D85" stroke-width="0.6" stroke-linecap="round" stroke-linejoin="round"/>
<path d="M32.8034 16.8907H29.616" stroke="#001D85" stroke-width="0.6" stroke-linecap="round" stroke-linejoin="round"/>
<path d="M1 16.8907H4.17561" stroke="#001D85" stroke-width="0.6" stroke-linecap="round" stroke-linejoin="round"/>
<path d="M4.52979 4.53333L7.90608 7.90962" stroke="#001D85" stroke-width="0.6" stroke-linecap="round" stroke-linejoin="round"/>
<path d="M29.2618 4.53333L25.8855 7.90962" stroke="#001D85" stroke-width="0.6" stroke-linecap="round" stroke-linejoin="round"/>
<path d="M16.6419 26.7358C21.8578 26.7358 26.0861 22.5075 26.0861 17.2916C26.0861 12.0757 21.8578 7.84741 16.6419 7.84741C11.4261 7.84741 7.19775 12.0757 7.19775 17.2916C7.19775 22.5075 11.4261 26.7358 16.6419 26.7358Z" stroke="#001D85" stroke-width="0.6" stroke-linecap="round" stroke-linejoin="round"/>
<path d="M13.6906 29.0984H19.5932" stroke="#001D85" stroke-width="0.6" stroke-linecap="round" stroke-linejoin="round"/>
<path d="M13.6906 31.4587H19.5932" stroke="#001D85" stroke-width="0.6" stroke-linecap="round" stroke-linejoin="round"/>
<path d="M13.6906 33.8191H19.5932" stroke="#001D85" stroke-width="0.6" stroke-linecap="round" stroke-linejoin="round"/>
<path d="M16.642 33.8191V34.9996" stroke="#001D85" stroke-width="0.6" stroke-linecap="round" stroke-linejoin="round"/>
<path d="M20.1835 20.8333L18.4127 22.604L16.6419 20.8333L14.8711 22.604L13.1003 20.8333" stroke="#001D85" stroke-width="0.6" stroke-linecap="round" stroke-linejoin="round"/>
<path d="M16.642 20.8333V26.7359" stroke="#001D85" stroke-width="0.6" stroke-linecap="round" stroke-linejoin="round"/>
</svg>
