<svg width="30" height="36" viewBox="0 0 30 36" fill="none" xmlns="http://www.w3.org/2000/svg">
<path d="M2.30546 6.0877C0.951181 8.12522 0.414366 10.6508 4.343 11.8342C6.50253 15.4945 8.94267 13.7254 10.4434 11.4804C11.9441 9.23549 11.944 3.69636 10.0773 1C7.50297 3.70856 3.98916 3.53775 2.30546 6.0877Z" stroke="#001D85" stroke-width="0.6" stroke-linecap="round" stroke-linejoin="round"/>
<path d="M15.0308 6.9386C17.8059 6.9386 20.5186 7.76149 22.8259 9.30322C25.1333 10.8449 26.9317 13.0363 27.9936 15.6001C29.0556 18.1639 29.3334 20.985 28.7921 23.7067C28.2507 26.4284 26.9144 28.9285 24.9521 30.8907C22.9899 32.853 20.4898 34.1893 17.7681 34.7307C15.0464 35.2721 12.2252 34.9942 9.66144 33.9322C7.09764 32.8703 4.90633 31.0719 3.3646 28.7645C1.82287 26.4572 1 23.7445 1 20.9694C1 15.1497 3.28153 11.7823 6.94175 8.12207" stroke="#001D85" stroke-width="0.6" stroke-linecap="round" stroke-linejoin="round"/>
<path d="M25.4014 11.5132C25.4014 11.5132 24.7914 14.8684 22.3512 16.0885C19.9111 15.4784 17.4709 17.3086 18.081 17.3086C18.691 17.3086 19.301 19.7487 19.301 19.7487C19.9111 20.3587 21.1312 19.7487 21.1312 19.7487C22.6562 21.2738 18.691 24.019 18.691 24.629C18.691 25.239 20.2161 25.544 19.301 26.4591C18.7843 26.9908 18.1605 27.4067 17.4709 27.6792C17.4709 30.7294 14.4208 30.7294 13.8107 30.7294C13.2007 30.7294 11.9806 28.2892 11.9806 27.6792C11.9806 27.0691 12.5906 26.4591 12.5906 25.8491C12.5906 25.239 11.3706 24.019 11.3706 24.019C11.3706 21.5788 9.54047 22.1888 7.71036 22.1888C5.88025 22.1888 5.88025 19.7487 5.88025 19.7487C5.88025 19.7487 5.88025 15.4784 8.93043 14.8684C11.9806 14.2584 11.9806 15.4784 11.9806 15.4784C13.2007 16.6985 15.6408 15.4784 16.8609 15.4784C16.8609 15.4784 17.4709 11.2082 16.2509 11.8182C15.0308 12.4283 13.9327 11.9524 13.8107 10.5982C13.6399 8.68264 19.1302 7.54797 19.1302 7.54797" stroke="#001D85" stroke-width="0.6" stroke-linecap="round" stroke-linejoin="round"/>
</svg>
