<svg width="36" height="28" viewBox="0 0 36 28" fill="none" xmlns="http://www.w3.org/2000/svg">
<path d="M21.366 14.5774C22.6158 14.5774 23.6289 13.5643 23.6289 12.3145C23.6289 11.0648 22.6158 10.0516 21.366 10.0516C20.1163 10.0516 19.1031 11.0648 19.1031 12.3145C19.1031 13.5643 20.1163 14.5774 21.366 14.5774Z" stroke="#001D85" stroke-width="0.6" stroke-linecap="round" stroke-linejoin="round"/>
<path d="M3.2629 2.69714C2.66274 2.69714 2.08716 2.93556 1.66279 3.35993C1.23841 3.78431 1 4.35988 1 4.96004V10.6173C1 12.1177 1.59601 13.5566 2.65695 14.6176C3.71789 15.6785 5.15685 16.2745 6.65725 16.2745C8.15764 16.2745 9.59657 15.6785 10.6575 14.6176C11.7184 13.5566 12.3145 12.1177 12.3145 10.6173V4.96004C12.3145 4.35988 12.0761 3.78431 11.6517 3.35993C11.2273 2.93556 10.6518 2.69714 10.0516 2.69714" stroke="#001D85" stroke-width="0.6" stroke-linecap="round" stroke-linejoin="round"/>
<path d="M6.65723 16.2746V24.7604C6.65723 25.3606 6.89564 25.9362 7.32001 26.3605C7.74439 26.7849 8.31997 27.0233 8.92013 27.0233C9.52028 27.0233 10.0959 26.7849 10.5202 26.3605C10.9446 25.9362 11.183 25.3606 11.183 24.7604V19.1032C11.183 18.353 11.481 17.6335 12.0115 17.1031C12.542 16.5726 13.2614 16.2746 14.0116 16.2746C14.7618 16.2746 15.4813 16.5726 16.0118 17.1031C16.5422 17.6335 16.8403 18.353 16.8403 19.1032V22.4975C16.8403 23.0977 17.0787 23.6733 17.5031 24.0976C17.9274 24.522 18.503 24.7604 19.1032 24.7604C19.7033 24.7604 20.2789 24.522 20.7033 24.0976C21.1277 23.6733 21.3661 23.0977 21.3661 22.4975V14.5774" stroke="#001D85" stroke-width="0.6" stroke-linecap="round" stroke-linejoin="round"/>
<path d="M9.90445 2.69753C9.90907 2.92167 9.86832 3.14444 9.78467 3.35244C9.70101 3.56044 9.57619 3.74938 9.41766 3.90791C9.25913 4.06643 9.07019 4.19128 8.86219 4.27493C8.65419 4.35858 8.43142 4.39932 8.20728 4.3947V1.00035C8.43142 0.995731 8.65419 1.03647 8.86219 1.12012C9.07019 1.20378 9.25913 1.32862 9.41766 1.48715C9.57619 1.64568 9.70101 1.83462 9.78467 2.04262C9.86832 2.25062 9.90907 2.47338 9.90445 2.69753Z" stroke="#001D85" stroke-width="0.6" stroke-linecap="round" stroke-linejoin="round"/>
<path d="M3.11583 2.69753C3.11121 2.47338 3.15196 2.25062 3.23561 2.04262C3.31927 1.83462 3.4441 1.64568 3.60262 1.48715C3.76115 1.32862 3.95009 1.20378 4.15809 1.12012C4.36609 1.03647 4.58886 0.995731 4.81301 1.00035V4.3947C4.58886 4.39932 4.36609 4.35858 4.15809 4.27493C3.95009 4.19128 3.76115 4.06643 3.60262 3.90791C3.4441 3.74938 3.31927 3.56044 3.23561 3.35244C3.15196 3.14444 3.11121 2.92167 3.11583 2.69753V2.69753Z" stroke="#001D85" stroke-width="0.6" stroke-linecap="round" stroke-linejoin="round"/>
<path d="M24.025 15.5598C25.2243 16.5781 26.1068 17.2117 26.1068 17.2117C26.1068 17.2117 35 10.8077 35 6.06694C35 0.590723 27.7248 -1.14039 26.1068 5.52384C24.4889 -1.14039 17.2136 0.590723 17.2136 6.06694C17.31 7.4192 17.7931 8.71526 18.6053 9.80072" stroke="#001D85" stroke-width="0.6" stroke-linecap="round" stroke-linejoin="round"/>
</svg>
