<svg width="35" height="36" viewBox="0 0 35 36" fill="none" xmlns="http://www.w3.org/2000/svg">
<path d="M1 1V35" stroke="#001D85" stroke-width="0.6" stroke-linecap="round" stroke-linejoin="round"/>
<path d="M17.762 7.31694V3.36431C17.762 3.36431 10.2593 5.40162 10.2593 2.75433C10.2593 0.107042 2.7688 2.75433 2.7688 2.75433V13.2947C3.99187 12.8758 5.24353 12.5456 6.51405 12.3065" stroke="#001D85" stroke-width="0.6" stroke-linecap="round" stroke-linejoin="round"/>
<path d="M8.0636 7.17029V34.9973" stroke="#001D85" stroke-width="0.6" stroke-linecap="round" stroke-linejoin="round"/>
<path d="M24.8256 15.2965V9.55058C24.8256 9.55058 17.3228 11.5757 17.3228 8.9284C17.3228 6.28111 9.82019 8.9284 9.82019 8.9284V19.5176C9.82019 19.5176 14.7 17.7974 16.5909 18.5172" stroke="#001D85" stroke-width="0.6" stroke-linecap="round" stroke-linejoin="round"/>
<path d="M17.7621 15.9904V34.9972" stroke="#001D85" stroke-width="0.6" stroke-linecap="round" stroke-linejoin="round"/>
<path d="M34.5241 18.3685C34.5241 18.3685 27.0214 20.3936 27.0214 17.7586C27.0214 15.1235 19.5309 17.7586 19.5309 17.7586V28.3355C19.5309 28.3355 27.0214 25.6882 27.0214 28.3355C27.0214 30.9828 34.5241 28.9943 34.5241 28.9943V18.3685Z" stroke="#001D85" stroke-width="0.6" stroke-linecap="round" stroke-linejoin="round"/>
</svg>
