<svg width="36" height="30" viewBox="0 0 36 30" fill="none" xmlns="http://www.w3.org/2000/svg">
<path d="M3.8324 3.81848H32.1678" stroke="#001D85" stroke-width="0.6" stroke-linecap="round" stroke-linejoin="round"/>
<path d="M18.0065 1V23.6581" stroke="#001D85" stroke-width="0.6" stroke-linecap="round" stroke-linejoin="round"/>
<path d="M12.329 29.3206C12.3983 27.8632 13.026 26.4885 14.0819 25.4816C15.1378 24.4747 16.5409 23.913 17.9999 23.913C19.4589 23.913 20.862 24.4747 21.9179 25.4816C22.9738 26.4885 23.6015 27.8632 23.6708 29.3206H12.329Z" stroke="#001D85" stroke-width="0.6" stroke-linecap="round" stroke-linejoin="round"/>
<path d="M1 15.1603L6.6645 3.81848L12.3291 15.1475" stroke="#001D85" stroke-width="0.6" stroke-linecap="round" stroke-linejoin="round"/>
<path d="M23.671 15.1603L29.3355 3.81848L35.0001 15.1475" stroke="#001D85" stroke-width="0.6" stroke-linecap="round" stroke-linejoin="round"/>
<path d="M12.3291 15.1624C12.3291 16.6647 11.7323 18.1055 10.6699 19.1678C9.60764 20.2301 8.16683 20.8269 6.6645 20.8269C5.16218 20.8269 3.72144 20.2301 2.65914 19.1678C1.59683 18.1055 1 16.6647 1 15.1624H12.3291Z" stroke="#001D85" stroke-width="0.6" stroke-linecap="round" stroke-linejoin="round"/>
<path d="M35.0001 15.1624C35.0001 16.6647 34.4033 18.1055 33.341 19.1678C32.2787 20.2301 30.8378 20.8269 29.3355 20.8269C27.8332 20.8269 26.3925 20.2301 25.3302 19.1678C24.2679 18.1055 23.671 16.6647 23.671 15.1624H35.0001Z" stroke="#001D85" stroke-width="0.6" stroke-linecap="round" stroke-linejoin="round"/>
</svg>
