<svg width="30" height="30" viewBox="0 0 30 30" fill="none" xmlns="http://www.w3.org/2000/svg">
<circle cx="15" cy="15" r="14.75" stroke="#001D85" stroke-width="0.5"/>
<path d="M14.584 18.28H13.992V16.2C14.792 16.1467 15.4907 15.8427 16.088 15.288C16.696 14.7333 17 14.0453 17 13.224C17 12.392 16.76 11.72 16.28 11.208C15.8 10.696 15.2027 10.44 14.488 10.44C13.7733 10.44 13.2027 10.5947 12.776 10.904C12.36 11.2027 12.1307 11.5547 12.088 11.96H11.496C11.528 11.3413 11.8213 10.8293 12.376 10.424C12.9413 10.008 13.5813 9.8 14.296 9.8C14.4987 9.8 14.7867 9.83733 15.16 9.912C15.5333 9.976 15.8373 10.0827 16.072 10.232C16.3173 10.3707 16.5627 10.552 16.808 10.776C17.3307 11.256 17.592 12.0293 17.592 13.096C17.592 14.1627 17.304 15.0053 16.728 15.624C16.1627 16.232 15.448 16.6053 14.584 16.744V18.28ZM13.944 19.944H14.552V21H13.944V19.944Z" fill="#001D85"/>
</svg>
