<svg width="30" height="36" viewBox="0 0 30 36" fill="none" xmlns="http://www.w3.org/2000/svg">
<path d="M17.2612 34.9824C8.39307 23.1484 8.39307 10.6132 17.2612 1" stroke="#001D85" stroke-width="0.6" stroke-linecap="round" stroke-linejoin="round"/>
<path d="M3.20679 26.1338H18.737" stroke="#001D85" stroke-width="0.6" stroke-linecap="round" stroke-linejoin="round"/>
<path d="M2.89978 9.85876H18.7368" stroke="#001D85" stroke-width="0.6" stroke-linecap="round" stroke-linejoin="round"/>
<path d="M1.08838 17.2488H18.737" stroke="#001D85" stroke-width="0.6" stroke-linecap="round" stroke-linejoin="round"/>
<path d="M18.7368 1.03311C18.4885 1.03311 18.2547 1.03311 18.0063 1.03311C15.7947 0.98653 13.596 1.38098 11.5385 2.19344C9.481 3.0059 7.60602 4.22008 6.02291 5.76512C4.43979 7.31015 3.18024 9.15507 2.31794 11.1922C1.45563 13.2293 1.00779 15.4178 1.00052 17.6298C0.965206 22.1746 2.72604 26.5494 5.89985 29.8026C9.07366 33.0557 13.4037 34.924 17.9479 35.0009C18.2109 35.0009 18.4739 35.0009 18.7368 35.0009V1.03311Z" stroke="#001D85" stroke-width="0.6" stroke-linecap="round" stroke-linejoin="round"/>
<path d="M24.8 11.0564H20.2856C19.7915 11.0573 19.2999 11.1261 18.8246 11.2609V34.958H26.4071V23.9422C27.2095 23.9309 27.9759 23.6071 28.5433 23.0396C29.1108 22.4722 29.4346 21.7058 29.4459 20.9034V15.6C29.519 14.9768 29.4481 14.345 29.2389 13.7534C29.0296 13.1617 28.6876 12.6259 28.2389 12.1872C27.7903 11.7484 27.2469 11.4183 26.6508 11.2223C26.0546 11.0262 25.4215 10.9695 24.8 11.0564V11.0564Z" stroke="#001D85" stroke-width="0.6" stroke-linecap="round" stroke-linejoin="round"/>
<path d="M19.3214 5.88407C19.3214 6.52266 19.5108 7.14691 19.8656 7.67788C20.2203 8.20884 20.7246 8.62268 21.3146 8.86706C21.9046 9.11144 22.5537 9.17538 23.1801 9.0508C23.8064 8.92621 24.3817 8.6187 24.8333 8.16715C25.2848 7.7156 25.5923 7.14029 25.7169 6.51397C25.8415 5.88765 25.7776 5.23846 25.5332 4.64848C25.2888 4.0585 24.875 3.55423 24.344 3.19945C23.813 2.84467 23.1887 2.65531 22.5502 2.65531C22.1256 2.65337 21.7049 2.73557 21.3123 2.89714C20.9197 3.05872 20.5629 3.29647 20.2627 3.59668C19.9625 3.89688 19.7249 4.25359 19.5633 4.64619C19.4017 5.0388 19.3195 5.45952 19.3214 5.88407V5.88407Z" stroke="#001D85" stroke-width="0.6" stroke-linecap="round" stroke-linejoin="round"/>
<path d="M22.5355 22.64V34.8684" stroke="#001D85" stroke-width="0.6" stroke-linecap="round" stroke-linejoin="round"/>
<path d="M26.3195 23.9387V17.0721" stroke="#001D85" stroke-width="0.6" stroke-linecap="round" stroke-linejoin="round"/>
</svg>
