<svg width="27" height="36" viewBox="0 0 27 36" fill="none" xmlns="http://www.w3.org/2000/svg">
<path d="M13.1034 9.14368H3.14337V21.8261H13.1034V9.14368Z" stroke="#001D85" stroke-width="0.6" stroke-linecap="round" stroke-linejoin="round"/>
<path d="M11.2994 3.71167H4.95819V9.14544H11.2994V3.71167Z" stroke="#001D85" stroke-width="0.6" stroke-linecap="round" stroke-linejoin="round"/>
<path d="M7.66962 3.71142V1" stroke="#001D85" stroke-width="0.6" stroke-linecap="round" stroke-linejoin="round"/>
<path d="M23.9709 5.52808H15.8257V21.8294H23.9709V5.52808Z" stroke="#001D85" stroke-width="0.6" stroke-linecap="round" stroke-linejoin="round"/>
<path d="M17.6406 7.34167H22.1669" stroke="#001D85" stroke-width="0.6" stroke-linecap="round" stroke-linejoin="round"/>
<path d="M17.6406 9.14368H22.1669" stroke="#001D85" stroke-width="0.6" stroke-linecap="round" stroke-linejoin="round"/>
<path d="M17.6406 10.9601H22.1669" stroke="#001D85" stroke-width="0.6" stroke-linecap="round" stroke-linejoin="round"/>
<path d="M17.6406 12.7737H22.1669" stroke="#001D85" stroke-width="0.6" stroke-linecap="round" stroke-linejoin="round"/>
<path d="M17.6406 14.5757H22.1669" stroke="#001D85" stroke-width="0.6" stroke-linecap="round" stroke-linejoin="round"/>
<path d="M17.6406 16.3921H22.1669" stroke="#001D85" stroke-width="0.6" stroke-linecap="round" stroke-linejoin="round"/>
<path d="M17.6406 18.2057H22.1669" stroke="#001D85" stroke-width="0.6" stroke-linecap="round" stroke-linejoin="round"/>
<path d="M4.95819 11.864H11.2994" stroke="#001D85" stroke-width="0.6" stroke-linecap="round" stroke-linejoin="round"/>
<path d="M4.95819 14.5757H11.2994" stroke="#001D85" stroke-width="0.6" stroke-linecap="round" stroke-linejoin="round"/>
<path d="M4.95819 17.3018H11.2994" stroke="#001D85" stroke-width="0.6" stroke-linecap="round" stroke-linejoin="round"/>
<path d="M6.77295 5.52808H9.48441" stroke="#001D85" stroke-width="0.6" stroke-linecap="round" stroke-linejoin="round"/>
<path d="M6.77295 7.34167H9.48441" stroke="#001D85" stroke-width="0.6" stroke-linecap="round" stroke-linejoin="round"/>
<path d="M8.58789 20.0134H6.77295V21.8283H8.58789V20.0134Z" stroke="#001D85" stroke-width="0.6" stroke-linecap="round" stroke-linejoin="round"/>
<path d="M21.2595 20.0134H19.4446V21.8283H21.2595V20.0134Z" stroke="#001D85" stroke-width="0.6" stroke-linecap="round" stroke-linejoin="round"/>
<path d="M2.62946 28.417H24.5613" stroke="#001D85" stroke-width="0.6" stroke-linecap="round" stroke-linejoin="round"/>
<path d="M1.00039 21.8588C1.00039 21.9572 1.00039 22.0556 1.00039 22.154C0.973963 25.5144 2.27547 28.7494 4.62186 31.1551C6.96825 33.5609 10.1697 34.9429 13.5298 35.0004C16.8741 34.9975 20.0804 33.6669 22.4441 31.3011C24.8079 28.9353 26.1357 25.7279 26.1357 22.3836C26.1357 22.2086 26.1357 22.0337 26.1357 21.8588H1.00039Z" stroke="#001D85" stroke-width="0.6" stroke-linecap="round" stroke-linejoin="round"/>
<path d="M8.09601 21.8154C8.09601 26.1122 9.73598 30.6166 13.0159 34.9899" stroke="#001D85" stroke-width="0.6" stroke-linecap="round" stroke-linejoin="round"/>
<path d="M19.0291 22.0321C18.811 26.7645 17.0873 31.3036 14.1092 34.9879" stroke="#001D85" stroke-width="0.6" stroke-linecap="round" stroke-linejoin="round"/>
</svg>
