<svg width="32" height="36" viewBox="0 0 32 36" fill="none" xmlns="http://www.w3.org/2000/svg">
<path d="M16.1814 20.5454C16.6857 20.5454 17.1787 20.3958 17.598 20.1157C18.0174 19.8355 18.3442 19.4372 18.5372 18.9713C18.7302 18.5054 18.7807 17.9926 18.6823 17.498C18.5839 17.0034 18.3411 16.549 17.9844 16.1924C17.6278 15.8358 17.1735 15.5929 16.6788 15.4946C16.1842 15.3962 15.6715 15.4467 15.2056 15.6397C14.7396 15.8327 14.3414 16.1595 14.0612 16.5788C13.781 16.9982 13.6315 17.4912 13.6315 17.9955C13.6296 18.3309 13.6942 18.6633 13.8217 18.9735C13.9492 19.2837 14.137 19.5656 14.3741 19.8027C14.6113 20.0399 14.8932 20.2276 15.2034 20.3551C15.5136 20.4826 15.846 20.5473 16.1814 20.5454V20.5454Z" stroke="#001D85" stroke-width="0.6" stroke-linecap="round" stroke-linejoin="round"/>
<path d="M24.752 9.31292C25.3388 9.31292 25.8145 8.83724 25.8145 8.25046C25.8145 7.66367 25.3388 7.18799 24.752 7.18799C24.1653 7.18799 23.6896 7.66367 23.6896 8.25046C23.6896 8.83724 24.1653 9.31292 24.752 9.31292Z" stroke="#001D85" stroke-width="0.6" stroke-linecap="round" stroke-linejoin="round"/>
<path d="M12.0023 6.47979C12.5891 6.47979 13.0648 6.00411 13.0648 5.41733C13.0648 4.83054 12.5891 4.35486 12.0023 4.35486C11.4155 4.35486 10.9398 4.83054 10.9398 5.41733C10.9398 6.00411 11.4155 6.47979 12.0023 6.47979Z" stroke="#001D85" stroke-width="0.6" stroke-linecap="round" stroke-linejoin="round"/>
<path d="M20.502 31.9775C21.0888 31.9775 21.5645 31.5018 21.5645 30.915C21.5645 30.3282 21.0888 29.8525 20.502 29.8525C19.9153 29.8525 19.4396 30.3282 19.4396 30.915C19.4396 31.5018 19.9153 31.9775 20.502 31.9775Z" stroke="#001D85" stroke-width="0.6" stroke-linecap="round" stroke-linejoin="round"/>
<path d="M2.08603 14.9791C2.67281 14.9791 3.14849 14.5034 3.14849 13.9166C3.14849 13.3298 2.67281 12.8541 2.08603 12.8541C1.49924 12.8541 1.02356 13.3298 1.02356 13.9166C1.02356 14.5034 1.49924 14.9791 2.08603 14.9791Z" stroke="#001D85" stroke-width="0.6" stroke-linecap="round" stroke-linejoin="round"/>
<path d="M6.33578 29.1443C6.92257 29.1443 7.39825 28.6687 7.39825 28.0819C7.39825 27.4951 6.92257 27.0194 6.33578 27.0194C5.749 27.0194 5.27332 27.4951 5.27332 28.0819C5.27332 28.6687 5.749 29.1443 6.33578 29.1443Z" stroke="#001D85" stroke-width="0.6" stroke-linecap="round" stroke-linejoin="round"/>
<path d="M30.4184 23.4782C31.0052 23.4782 31.4809 23.0025 31.4809 22.4157C31.4809 21.829 31.0052 21.3533 30.4184 21.3533C29.8316 21.3533 29.356 21.829 29.356 22.4157C29.356 23.0025 29.8316 23.4782 30.4184 23.4782Z" stroke="#001D85" stroke-width="0.6" stroke-linecap="round" stroke-linejoin="round"/>
<path d="M29.7951 21.5518C26.839 17.9393 23.1751 14.9696 19.0288 12.8254C10.8266 8.29222 2.87929 6.87559 1.27851 9.77967C1.06649 10.2781 0.977717 10.8203 1.01964 11.3603C1.06156 11.9003 1.233 12.4223 1.5194 12.8821" stroke="#001D85" stroke-width="0.6" stroke-linecap="round" stroke-linejoin="round"/>
<path d="M2.79431 14.9132C5.71619 18.331 9.26485 21.1584 13.249 23.2429C21.4512 27.7903 29.3985 29.1644 30.9993 26.2887C31.2057 25.8676 31.313 25.4048 31.313 24.9358C31.313 24.4668 31.2057 24.0041 30.9993 23.5829" stroke="#001D85" stroke-width="0.6" stroke-linecap="round" stroke-linejoin="round"/>
<path d="M5.21669 27.7902C3.27591 27.7902 1.85925 27.3369 1.27843 26.2886C-0.308183 23.4553 5.04667 17.3922 13.2489 12.8306C16.56 10.9351 20.1296 9.53212 23.8452 8.66577" stroke="#001D85" stroke-width="0.6" stroke-linecap="round" stroke-linejoin="round"/>
<path d="M25.9419 8.29394C28.4776 8.05311 30.3192 8.50643 30.9992 9.71056C32.6 12.5438 27.231 18.6069 19.0287 23.1685C15.3995 25.2773 11.4377 26.7528 7.31323 27.5317" stroke="#001D85" stroke-width="0.6" stroke-linecap="round" stroke-linejoin="round"/>
<path d="M20.8562 29.7863C21.9516 25.9093 22.4297 21.884 22.2728 17.8583C22.0462 8.48026 19.1988 0.929663 15.9122 1.00049C14.6373 1.00049 13.4756 2.21879 12.5406 4.21623" stroke="#001D85" stroke-width="0.6" stroke-linecap="round" stroke-linejoin="round"/>
<path d="M11.6624 6.46655C10.626 10.2669 10.1769 14.2034 10.3307 18.1395C10.5432 27.5317 13.3906 35.139 16.6772 34.9973C17.9096 34.9973 19.0289 33.864 19.9355 32.0083" stroke="#001D85" stroke-width="0.6" stroke-linecap="round" stroke-linejoin="round"/>
</svg>
