<svg width="36" height="32" viewBox="0 0 36 32" fill="none" xmlns="http://www.w3.org/2000/svg">
<path d="M31.7501 13.0489L15.6938 20.0963L12.1702 18.3344L8.0592 20.0963L13.3447 25.3818L22.1539 21.8581L18.6302 31.2546L23.3285 28.9055L28.0267 19.509L33.5471 17.4535C33.8324 17.3355 34.0918 17.1625 34.3103 16.9443C34.5288 16.726 34.7021 16.4669 34.8204 16.1817C34.9388 15.8965 34.9998 15.5908 34.9999 15.282C35.0001 14.9732 34.9396 14.6674 34.8216 14.382C34.7036 14.0967 34.5305 13.8374 34.3123 13.6189C34.0941 13.4004 33.8349 13.2271 33.5497 13.1087C33.2645 12.9904 32.9588 12.9294 32.65 12.9292C32.3412 12.929 32.0355 12.9897 31.7501 13.1077V13.0489Z" stroke="#001D85" stroke-width="0.6" stroke-linecap="round" stroke-linejoin="round"/>
<path d="M26.4645 15.3516L18.6537 12.1216L14.3079 13.9187L22.2244 17.1957" stroke="#001D85" stroke-width="0.6" stroke-linecap="round" stroke-linejoin="round"/>
<path d="M7.16647 21.1807C5.44132 20.39 3.96086 19.1495 2.88045 17.5893C1.80004 16.0291 1.15948 14.2069 1.02613 12.3138C0.892783 10.4208 1.27152 8.52674 2.12255 6.83052C2.97358 5.1343 4.26553 3.69846 5.8628 2.6737C7.46007 1.64894 9.30379 1.07306 11.2004 1.0065C13.0969 0.93995 14.9764 1.38518 16.6416 2.29545C18.3068 3.20573 19.6962 4.54748 20.664 6.17987C21.6318 7.81227 22.1424 9.6751 22.1421 11.5728" stroke="#001D85" stroke-width="0.6" stroke-linecap="round" stroke-linejoin="round"/>
<path d="M4.84087 3.40869L11.0425 5.75781C11.4451 5.89456 11.7853 6.17142 12.0009 6.53793C12.2164 6.90444 12.2932 7.33621 12.2171 7.75456L11.8412 9.58688C11.7775 9.91327 11.6222 10.2148 11.3934 10.4561C11.1646 10.6974 10.8718 10.8685 10.5492 10.9494L8.10611 11.5601L6.75541 14.9546C6.48511 15.6121 6.02761 16.1757 5.43984 16.5755L3.27869 18.0554" stroke="#001D85" stroke-width="0.6" stroke-linecap="round" stroke-linejoin="round"/>
<path d="M18.9122 3.9502L17.1739 7.39165C16.9732 7.80973 16.9395 8.28864 17.0799 8.73065L17.7376 10.6804" stroke="#001D85" stroke-width="0.6" stroke-linecap="round" stroke-linejoin="round"/>
</svg>
